<svg width="160" height="44" viewBox="0 0 160 44" fill="none" xmlns="http://www.w3.org/2000/svg">
<rect width="160" height="44" rx="10" fill="#F0F6F6"/>
<path d="M31.7157 25H27.8579C26.8347 25 25.8534 25.4214 25.1299 26.1716C24.4065 26.9217 24 27.9391 24 29V31M43 26.4001L42.132 26.1001M36.731 23.9001L35.863 23.6001M38.0813 28.7001L38.3706 27.8M40.4924 22.2L40.7818 21.3M40.9745 28.7L40.5887 27.7M38.274 22.3L37.8882 21.3M35.863 26.6L36.8274 26.2M42.0354 23.7999L42.9999 23.3999M42.3248 25C42.3248 26.6569 41.0294 28 39.4314 28C37.8335 28 36.538 26.6569 36.538 25C36.538 23.3431 37.8335 22 39.4314 22C41.0294 22 42.3248 23.3431 42.3248 25ZM34.6091 17C34.6091 19.2091 32.8819 21 30.7513 21C28.6206 21 26.8934 19.2091 26.8934 17C26.8934 14.7909 28.6206 13 30.7513 13C32.8819 13 34.6091 14.7909 34.6091 17Z" stroke="#002624" stroke-width="1.5" stroke-linecap="round" stroke-linejoin="round"/>
<path d="M56.28 27L59.864 17.06H61.782L65.366 27H63.756L62.846 24.41H58.786L57.89 27H56.28ZM59.262 23.038H62.384L60.816 18.502L59.262 23.038ZM69.2989 27.168C68.5989 27.168 68.0062 27.0607 67.5209 26.846C67.0449 26.6313 66.6762 26.3373 66.4149 25.964C66.1536 25.5813 66.0042 25.1427 65.9669 24.648L67.4929 24.578C67.5676 24.9887 67.7449 25.3153 68.0249 25.558C68.3049 25.8007 68.7296 25.922 69.2989 25.922C69.7656 25.922 70.1342 25.8473 70.4049 25.698C70.6756 25.5487 70.8109 25.3107 70.8109 24.984C70.8109 24.8067 70.7642 24.6573 70.6709 24.536C70.5869 24.4053 70.4189 24.298 70.1669 24.214C69.9149 24.1207 69.5416 24.032 69.0469 23.948C68.3096 23.808 67.7309 23.6447 67.3109 23.458C66.8909 23.2713 66.5922 23.0333 66.4149 22.744C66.2376 22.4547 66.1489 22.1047 66.1489 21.694C66.1489 21.0127 66.4009 20.4573 66.9049 20.028C67.4182 19.5987 68.1556 19.384 69.1169 19.384C69.7609 19.384 70.3022 19.496 70.7409 19.72C71.1796 19.9347 71.5202 20.2287 71.7629 20.602C72.0149 20.966 72.1736 21.3767 72.2389 21.834L70.7129 21.918C70.6662 21.6567 70.5729 21.4327 70.4329 21.246C70.3022 21.05 70.1249 20.9007 69.9009 20.798C69.6769 20.686 69.4109 20.63 69.1029 20.63C68.6269 20.63 68.2722 20.7233 68.0389 20.91C67.8056 21.0967 67.6889 21.3393 67.6889 21.638C67.6889 21.862 67.7402 22.044 67.8429 22.184C67.9549 22.324 68.1322 22.4407 68.3749 22.534C68.6176 22.618 68.9396 22.6927 69.3409 22.758C70.1156 22.8887 70.7222 23.052 71.1609 23.248C71.5996 23.4347 71.9076 23.668 72.0849 23.948C72.2622 24.228 72.3509 24.5687 72.3509 24.97C72.3509 25.4367 72.2202 25.8333 71.9589 26.16C71.6976 26.4867 71.3382 26.7387 70.8809 26.916C70.4236 27.084 69.8962 27.168 69.2989 27.168ZM76.7227 27.168C76.0227 27.168 75.4301 27.0607 74.9447 26.846C74.4687 26.6313 74.1001 26.3373 73.8387 25.964C73.5774 25.5813 73.4281 25.1427 73.3907 24.648L74.9167 24.578C74.9914 24.9887 75.1687 25.3153 75.4487 25.558C75.7287 25.8007 76.1534 25.922 76.7227 25.922C77.1894 25.922 77.5581 25.8473 77.8287 25.698C78.0994 25.5487 78.2347 25.3107 78.2347 24.984C78.2347 24.8067 78.1881 24.6573 78.0947 24.536C78.0107 24.4053 77.8427 24.298 77.5907 24.214C77.3387 24.1207 76.9654 24.032 76.4707 23.948C75.7334 23.808 75.1547 23.6447 74.7347 23.458C74.3147 23.2713 74.0161 23.0333 73.8387 22.744C73.6614 22.4547 73.5727 22.1047 73.5727 21.694C73.5727 21.0127 73.8247 20.4573 74.3287 20.028C74.8421 19.5987 75.5794 19.384 76.5407 19.384C77.1847 19.384 77.7261 19.496 78.1647 19.72C78.6034 19.9347 78.9441 20.2287 79.1867 20.602C79.4387 20.966 79.5974 21.3767 79.6627 21.834L78.1367 21.918C78.0901 21.6567 77.9967 21.4327 77.8567 21.246C77.7261 21.05 77.5487 20.9007 77.3247 20.798C77.1007 20.686 76.8347 20.63 76.5267 20.63C76.0507 20.63 75.6961 20.7233 75.4627 20.91C75.2294 21.0967 75.1127 21.3393 75.1127 21.638C75.1127 21.862 75.1641 22.044 75.2667 22.184C75.3787 22.324 75.5561 22.4407 75.7987 22.534C76.0414 22.618 76.3634 22.6927 76.7647 22.758C77.5394 22.8887 78.1461 23.052 78.5847 23.248C79.0234 23.4347 79.3314 23.668 79.5087 23.948C79.6861 24.228 79.7747 24.5687 79.7747 24.97C79.7747 25.4367 79.6441 25.8333 79.3827 26.16C79.1214 26.4867 78.7621 26.7387 78.3047 26.916C77.8474 27.084 77.3201 27.168 76.7227 27.168ZM81.2766 27V19.552H82.7606V27H81.2766ZM81.2486 18.474V16.99H82.7886V18.474H81.2486ZM87.7179 29.268C87.1299 29.268 86.6119 29.1793 86.1639 29.002C85.7159 28.8247 85.3472 28.5727 85.0579 28.246C84.7685 27.9287 84.5725 27.5553 84.4699 27.126L86.0099 27.028C86.1125 27.336 86.2899 27.5787 86.5419 27.756C86.8032 27.9427 87.1952 28.036 87.7179 28.036C88.3339 28.036 88.8052 27.9053 89.1319 27.644C89.4679 27.3827 89.6359 26.986 89.6359 26.454V25.376C89.4585 25.7587 89.1739 26.062 88.7819 26.286C88.3899 26.51 87.9512 26.622 87.4659 26.622C86.8405 26.622 86.2852 26.468 85.7999 26.16C85.3145 25.852 84.9365 25.4273 84.6659 24.886C84.3952 24.3447 84.2599 23.7193 84.2599 23.01C84.2599 22.2913 84.3905 21.6613 84.6519 21.12C84.9225 20.5787 85.2959 20.154 85.7719 19.846C86.2572 19.538 86.8032 19.384 87.4099 19.384C87.9419 19.384 88.4085 19.5053 88.8099 19.748C89.2205 19.9907 89.5145 20.3173 89.6919 20.728V19.552H91.1199V26.412C91.1199 27.028 90.9799 27.546 90.6999 27.966C90.4292 28.3953 90.0372 28.7173 89.5239 28.932C89.0199 29.156 88.4179 29.268 87.7179 29.268ZM87.7039 25.362C88.2825 25.362 88.7445 25.152 89.0899 24.732C89.4445 24.312 89.6265 23.7333 89.6359 22.996C89.6452 22.5107 89.5705 22.0953 89.4119 21.75C89.2532 21.3953 89.0245 21.1247 88.7259 20.938C88.4365 20.742 88.0959 20.644 87.7039 20.644C87.0972 20.644 86.6259 20.8587 86.2899 21.288C85.9632 21.708 85.7999 22.2773 85.7999 22.996C85.7999 23.724 85.9679 24.3027 86.3039 24.732C86.6492 25.152 87.1159 25.362 87.7039 25.362ZM93.2258 27V19.552H94.5838L94.6398 21.54L94.4578 21.442C94.5418 20.9567 94.7004 20.5647 94.9338 20.266C95.1671 19.9673 95.4518 19.748 95.7878 19.608C96.1238 19.4587 96.4878 19.384 96.8798 19.384C97.4398 19.384 97.9018 19.51 98.2658 19.762C98.6391 20.0047 98.9191 20.3407 99.1058 20.77C99.3018 21.19 99.3998 21.6707 99.3998 22.212V27H97.9158V22.66C97.9158 22.2213 97.8691 21.8527 97.7758 21.554C97.6824 21.2553 97.5284 21.0267 97.3138 20.868C97.0991 20.7093 96.8191 20.63 96.4738 20.63C95.9511 20.63 95.5264 20.8027 95.1998 21.148C94.8731 21.4933 94.7098 21.9973 94.7098 22.66V27H93.2258ZM108.64 27.224C107.846 27.224 107.156 27.0793 106.568 26.79C105.989 26.5007 105.532 26.0993 105.196 25.586C104.86 25.0727 104.664 24.4753 104.608 23.794L106.162 23.696C106.227 24.1627 106.362 24.5593 106.568 24.886C106.773 25.2033 107.048 25.446 107.394 25.614C107.748 25.7727 108.173 25.852 108.668 25.852C109.097 25.852 109.461 25.8007 109.76 25.698C110.068 25.586 110.301 25.4227 110.46 25.208C110.618 24.9933 110.698 24.732 110.698 24.424C110.698 24.144 110.628 23.8967 110.488 23.682C110.357 23.458 110.1 23.2573 109.718 23.08C109.344 22.8933 108.794 22.7113 108.066 22.534C107.272 22.338 106.638 22.1233 106.162 21.89C105.686 21.6567 105.34 21.3673 105.126 21.022C104.92 20.6673 104.818 20.2333 104.818 19.72C104.818 19.1507 104.953 18.6513 105.224 18.222C105.504 17.7833 105.9 17.4427 106.414 17.2C106.927 16.9573 107.543 16.836 108.262 16.836C109.018 16.836 109.662 16.976 110.194 17.256C110.735 17.536 111.16 17.9187 111.468 18.404C111.785 18.8893 111.981 19.4447 112.056 20.07L110.502 20.154C110.455 19.7713 110.338 19.4353 110.152 19.146C109.965 18.8473 109.713 18.6187 109.396 18.46C109.078 18.292 108.691 18.208 108.234 18.208C107.655 18.208 107.198 18.3433 106.862 18.614C106.535 18.8753 106.372 19.2253 106.372 19.664C106.372 19.944 106.437 20.182 106.568 20.378C106.708 20.5647 106.95 20.728 107.296 20.868C107.65 21.008 108.15 21.1573 108.794 21.316C109.652 21.512 110.334 21.7547 110.838 22.044C111.351 22.324 111.715 22.6553 111.93 23.038C112.144 23.4207 112.252 23.8547 112.252 24.34C112.252 24.928 112.098 25.4413 111.79 25.88C111.491 26.3093 111.071 26.6407 110.53 26.874C109.988 27.1073 109.358 27.224 108.64 27.224ZM116.59 27C115.88 27 115.358 26.8367 115.022 26.51C114.686 26.1833 114.518 25.6747 114.518 24.984V17.802H116.002V24.872C116.002 25.2173 116.076 25.4553 116.226 25.586C116.375 25.7167 116.604 25.782 116.912 25.782H117.976V27H116.59ZM113.384 20.77V19.552H117.976V20.77H113.384ZM121.439 27.168C120.664 27.168 120.043 26.9907 119.577 26.636C119.119 26.2813 118.891 25.782 118.891 25.138C118.891 24.494 119.082 23.9947 119.465 23.64C119.857 23.276 120.459 23.0147 121.271 22.856L123.833 22.366C123.833 21.7873 123.697 21.358 123.427 21.078C123.156 20.7887 122.755 20.644 122.223 20.644C121.747 20.644 121.373 20.7513 121.103 20.966C120.832 21.1713 120.645 21.4793 120.543 21.89L119.017 21.792C119.157 21.0453 119.502 20.4573 120.053 20.028C120.613 19.5987 121.336 19.384 122.223 19.384C123.231 19.384 123.996 19.6547 124.519 20.196C125.051 20.728 125.317 21.4793 125.317 22.45V25.348C125.317 25.5253 125.345 25.6513 125.401 25.726C125.466 25.7913 125.569 25.824 125.709 25.824H125.975V27C125.928 27.0093 125.853 27.0187 125.751 27.028C125.648 27.0373 125.541 27.042 125.429 27.042C125.111 27.042 124.836 26.9907 124.603 26.888C124.379 26.7853 124.211 26.6173 124.099 26.384C123.987 26.1413 123.931 25.8193 123.931 25.418L124.085 25.488C124.01 25.8147 123.847 26.104 123.595 26.356C123.352 26.608 123.039 26.8087 122.657 26.958C122.283 27.098 121.877 27.168 121.439 27.168ZM121.677 25.992C122.125 25.992 122.507 25.908 122.825 25.74C123.142 25.5627 123.389 25.32 123.567 25.012C123.744 24.704 123.833 24.354 123.833 23.962V23.486L121.649 23.906C121.201 23.99 120.883 24.1253 120.697 24.312C120.519 24.4893 120.431 24.718 120.431 24.998C120.431 25.3153 120.538 25.5627 120.753 25.74C120.977 25.908 121.285 25.992 121.677 25.992ZM127.601 27V19.076C127.601 18.46 127.774 17.97 128.119 17.606C128.464 17.242 129.006 17.06 129.743 17.06H131.059V18.278H129.939C129.65 18.278 129.435 18.3573 129.295 18.516C129.155 18.6653 129.085 18.88 129.085 19.16V27H127.601ZM126.565 20.854V19.65H130.947V20.854H126.565ZM131.913 27V19.076C131.913 18.46 132.086 17.97 132.431 17.606C132.776 17.242 133.318 17.06 134.055 17.06H135.371V18.278H134.251C133.962 18.278 133.747 18.3573 133.607 18.516C133.467 18.6653 133.397 18.88 133.397 19.16V27H131.913ZM130.877 20.854V19.65H135.259V20.854H130.877Z" fill="#002624"/>
</svg>
