<svg width="44" height="44" viewBox="0 0 44 44" fill="none" xmlns="http://www.w3.org/2000/svg">
<rect width="44" height="44" rx="12" fill="#002624"/>
<path d="M30 21.2686V22.0046C29.999 23.7297 29.4404 25.4083 28.4075 26.79C27.3745 28.1718 25.9226 29.1826 24.2683 29.6717C22.6139 30.1608 20.8458 30.1021 19.2276 29.5042C17.6093 28.9064 16.2277 27.8015 15.2888 26.3542C14.3498 24.907 13.9038 23.195 14.0173 21.4736C14.1308 19.7522 14.7978 18.1136 15.9186 16.8022C17.0395 15.4908 18.5542 14.5769 20.2369 14.1967C21.9197 13.8165 23.6802 13.9904 25.256 14.6926M19.6 21.2045L22 23.6045L30 15.6045" stroke="white" stroke-width="1.5" stroke-linecap="round" stroke-linejoin="round"/>
</svg>
